<svg width="33" height="33" viewBox="0 0 33 33" fill="none" xmlns="http://www.w3.org/2000/svg">
<path d="M6.38508 6.59961H28.2476C30.3101 6.59961 31.3496 7.57311 31.3496 9.55311V23.4461C31.3496 25.4096 30.3101 26.3996 28.2476 26.3996H6.38508C4.32258 26.3996 3.28308 25.4096 3.28308 23.4461V9.55311C3.28308 7.57311 4.32258 6.59961 6.38508 6.59961ZM17.3081 20.7896L28.4291 11.6651C28.8251 11.3351 29.1386 10.5761 28.6436 9.89961C28.1651 9.22311 27.2906 9.20661 26.7131 9.61911L17.3081 15.9881L7.91958 9.61911C7.34208 9.20661 6.46758 9.22311 5.98908 9.89961C5.49408 10.5761 5.80758 11.3351 6.20358 11.6651L17.3081 20.7896Z" fill="white"/>
</svg>
