<svg width="30" height="30" viewBox="0 0 30 30" fill="none" xmlns="http://www.w3.org/2000/svg">
<g clip-path="url(#clip0_2742_473)">
<path d="M15.3 9.75C12.5167 9.75 10.2717 11.9599 10.2717 14.6997C10.2717 17.4396 12.5167 19.6495 15.3 19.6495C18.0833 19.6495 20.3283 17.4396 20.3283 14.6997C20.3283 11.9599 18.0833 9.75 15.3 9.75ZM15.3 17.9177C13.5013 17.9177 12.0309 16.4746 12.0309 14.6997C12.0309 12.9249 13.497 11.4818 15.3 11.4818C17.103 11.4818 18.569 12.9249 18.569 14.6997C18.569 16.4746 17.0986 17.9177 15.3 17.9177ZM21.7068 9.54753C21.7068 10.1894 21.1817 10.702 20.534 10.702C19.8819 10.702 19.3611 10.1851 19.3611 9.54753C19.3611 8.90996 19.8863 8.39302 20.534 8.39302C21.1817 8.39302 21.7068 8.90996 21.7068 9.54753ZM25.0371 10.7193C24.9627 9.17274 24.6039 7.80284 23.4529 6.67418C22.3064 5.54551 20.9147 5.19227 19.3436 5.11472C17.7244 5.02426 12.8711 5.02426 11.2519 5.11472C9.68524 5.18796 8.29359 5.5412 7.14263 6.66987C5.99168 7.79853 5.6372 9.16844 5.55843 10.715C5.46653 12.3089 5.46653 17.0863 5.55843 18.6802C5.63282 20.2268 5.99168 21.5967 7.14263 22.7253C8.29359 23.854 9.68086 24.2072 11.2519 24.2848C12.8711 24.3752 17.7244 24.3752 19.3436 24.2848C20.9147 24.2115 22.3064 23.8583 23.4529 22.7253C24.5995 21.5967 24.9584 20.2268 25.0371 18.6802C25.129 17.0863 25.129 12.3132 25.0371 10.7193ZM22.9453 20.3905C22.6039 21.2348 21.9431 21.8853 21.081 22.2256C19.79 22.7296 16.7266 22.6133 15.3 22.6133C13.8733 22.6133 10.8056 22.7253 9.51894 22.2256C8.66119 21.8896 8.00038 21.2391 7.65465 20.3905C7.14263 19.1196 7.26079 16.1041 7.26079 14.6997C7.26079 13.2954 7.14701 10.2756 7.65465 9.00904C7.996 8.1647 8.65682 7.51421 9.51894 7.17389C10.8099 6.66987 13.8733 6.78618 15.3 6.78618C16.7266 6.78618 19.7944 6.67418 21.081 7.17389C21.9387 7.5099 22.5996 8.16039 22.9453 9.00904C23.4573 10.2799 23.3391 13.2954 23.3391 14.6997C23.3391 16.1041 23.4573 19.1239 22.9453 20.3905Z" fill="white"/>
</g>
<defs>
<clipPath id="clip0_2742_473">
<rect width="19.6056" height="22.0563" fill="white" transform="translate(5.4931 3.67578)"/>
</clipPath>
</defs>
</svg>
