<svg width="31" height="30" viewBox="0 0 31 30" fill="none" xmlns="http://www.w3.org/2000/svg">
<g clip-path="url(#clip0_2742_477)">
<path d="M10.1557 23.2817V10.8805H5.95237V23.2817H10.1557ZM8.05458 9.18633C9.52035 9.18633 10.4327 8.23406 10.4327 7.04405C10.4054 5.8272 9.52041 4.90137 8.08239 4.90137C6.6446 4.90137 5.70438 5.82722 5.70438 7.04405C5.70438 8.23412 6.61653 9.18633 8.02714 9.18633H8.05445H8.05458ZM12.4822 23.2817H16.6856V16.3563C16.6856 15.9856 16.7129 15.6154 16.8239 15.3504C17.1277 14.6099 17.8193 13.8429 18.9805 13.8429C20.5015 13.8429 21.11 14.9801 21.11 16.6472V23.2816H25.313V16.1709C25.313 12.3617 23.2393 10.5894 20.4738 10.5894C18.2063 10.5894 17.2107 11.8323 16.6576 12.6788H16.6856V10.8803H12.4823C12.5375 12.0439 12.4823 23.2814 12.4823 23.2814L12.4822 23.2817Z" fill="white"/>
</g>
<defs>
<clipPath id="clip0_2742_477">
<rect width="19.6056" height="18.3803" fill="white" transform="translate(5.70438 4.90137)"/>
</clipPath>
</defs>
</svg>
