<svg width="21" height="27" viewBox="0 0 21 27" fill="none" xmlns="http://www.w3.org/2000/svg">
<g clip-path="url(#clip0_2742_462)">
<path d="M9.31191 25.5969C6.69512 22.321 0.875 14.3815 0.875 9.92188C0.875 4.51114 5.18419 0.125 10.5 0.125C15.8138 0.125 20.125 4.51114 20.125 9.92188C20.125 14.3815 14.2598 22.321 11.6881 25.5969C11.0715 26.3776 9.92852 26.3776 9.31191 25.5969ZM10.5 13.1875C12.2696 13.1875 13.7083 11.7231 13.7083 9.92188C13.7083 8.12068 12.2696 6.65625 10.5 6.65625C8.7304 6.65625 7.29167 8.12068 7.29167 9.92188C7.29167 11.7231 8.7304 13.1875 10.5 13.1875Z" fill="white"/>
</g>
<defs>
<clipPath id="clip0_2742_462">
<rect width="19.25" height="26.125" fill="white" transform="translate(0.875 0.125)"/>
</clipPath>
</defs>
</svg>
