<svg width="31" height="30" viewBox="0 0 31 30" fill="none" xmlns="http://www.w3.org/2000/svg">
<g clip-path="url(#clip0_2742_481)">
<path d="M26.5209 8.21583C25.695 8.5644 24.819 8.79321 23.9219 8.89464C24.8563 8.36111 25.5737 7.51625 25.9115 6.50961C25.0233 7.01177 24.0515 7.36557 23.0381 7.55573C22.2126 6.71793 21.0367 6.19434 19.7351 6.19434C17.236 6.19434 15.2098 8.12455 15.2098 10.5052C15.2098 10.8432 15.2499 11.1721 15.327 11.4877C11.5662 11.3079 8.23193 9.59167 6.00001 6.98346C5.61058 7.62016 5.38743 8.36078 5.38743 9.15073C5.38743 10.6464 6.18637 11.9659 7.4005 12.739C6.68191 12.7175 5.97912 12.5326 5.35082 12.1997C5.35056 12.2178 5.35056 12.2358 5.35056 12.254C5.35056 14.3427 6.91035 16.0851 8.98038 16.4811C8.31402 16.6538 7.61506 16.679 6.93689 16.555C7.51268 18.2677 9.18388 19.514 11.164 19.5489C9.61527 20.7051 7.66406 21.3943 5.54407 21.3943C5.17876 21.3943 4.81862 21.3739 4.4646 21.3341C6.46716 22.5573 8.84571 23.271 11.4011 23.271C19.7246 23.271 24.276 16.7019 24.276 11.0052C24.276 10.8182 24.2717 10.6323 24.2629 10.4474C25.1488 9.83732 25.9135 9.08163 26.5209 8.21583Z" fill="white"/>
</g>
<defs>
<clipPath id="clip0_2742_481">
<rect width="22.0563" height="17.1549" fill="white" transform="translate(4.4646 6.12646)"/>
</clipPath>
</defs>
</svg>
