<svg width="375" height="466" viewBox="0 0 375 466" fill="none" xmlns="http://www.w3.org/2000/svg">
<g clip-path="url(#clip0_3212_2872)">
<circle cx="370.161" cy="217.218" r="44.9171" fill="#E14934"/>
<circle cx="303.131" cy="195.797" r="13.8206" fill="#0F8443"/>
<circle cx="215.597" cy="239.102" r="13.8206" fill="#E14934"/>
<path d="M193.489 350.125H362.101V354.271C362.101 400.832 324.356 438.577 277.795 438.577C231.234 438.577 193.489 400.832 193.489 354.271V350.125Z" fill="#E14934"/>
<path d="M235.872 350.125H319.717V351.968C319.717 375.121 300.948 393.89 277.795 393.89C254.641 393.89 235.872 375.121 235.872 351.968V350.125Z" fill="#2A438B"/>
<circle cx="19.348" cy="169.075" r="13.8206" fill="#E14934"/>
<circle cx="-6.91374" cy="20.7347" r="13.8206" fill="#0F8443"/>
<circle cx="317.876" cy="130.839" r="44.226" fill="#FFC51A"/>
<circle cx="317.878" cy="130.838" r="24.8771" fill="#2A438B"/>
<path d="M236.795 217.906H281.021C305.446 217.906 325.247 237.707 325.247 262.132H281.021C256.596 262.132 236.795 242.332 236.795 217.906Z" fill="#0F8443"/>
<path d="M193.489 80.1636C193.489 35.8926 229.378 0.00390625 273.649 0.00390625V95.8271C273.649 140.098 237.76 175.987 193.489 175.987V80.1636Z" fill="#E14934"/>
<path d="M193.489 127.617C193.489 103.446 213.084 83.8516 237.255 83.8516V130.381C237.255 154.552 217.66 174.146 193.489 174.146V127.617Z" fill="#2A438B"/>
<path d="M193.489 174.145H236.794C260.965 174.145 280.559 193.739 280.559 217.91H234.951C212.052 217.91 193.489 199.347 193.489 176.448V174.145Z" fill="#2A438B"/>
<path d="M272.267 0.00390625H374.77V89.3774H361.64C312.28 89.3774 272.267 49.3635 272.267 0.00390625Z" fill="#E14934"/>
<path d="M362.1 0.00390625H374.999V134.985C366.578 121.902 362.1 106.672 362.1 91.113V0.00390625Z" fill="#EAEAEA"/>
<path d="M19.3506 528.871H0.00169182V393.89C12.4137 406.745 19.3506 423.916 19.3506 441.786V528.871Z" fill="#2A438B"/>
<path d="M367.627 528.871H374.998V393.89C370.122 407.145 367.627 421.158 367.627 435.282V528.871Z" fill="#EFEFEF"/>
<path d="M12.9004 87.0703H0.0011282V134.982L7.20379 116.847C10.9674 107.37 12.9004 97.2665 12.9004 87.0703Z" fill="#FFC51A"/>
<path d="M19.3506 262.137H0.00169182V305.441L0.502901 304.982C12.5127 293.973 19.3506 278.429 19.3506 262.137Z" fill="#2A438B"/>
<path d="M12.9004 77.8633H0.0011282V42.3903L7.49902 56.3678C11.0448 62.9778 12.9004 70.3623 12.9004 77.8633Z" fill="#2A438B"/>
<path d="M19.3506 87.0703H106.421C154.508 87.0703 193.491 126.053 193.491 174.14H106.421C58.3331 174.14 19.3506 135.158 19.3506 87.0703Z" fill="#2A438B"/>
<path d="M106.424 130.379H149.729C173.899 130.379 193.494 149.973 193.494 174.144H150.189C126.018 174.144 106.424 154.55 106.424 130.379Z" fill="#EFEFEF"/>
<path d="M106.424 43.3086C106.424 19.3921 125.812 0.00390625 149.729 0.00390625H193.494V43.0782C193.494 67.122 173.887 86.6132 149.843 86.6132C125.927 86.6132 106.424 67.2251 106.424 43.3086Z" fill="#0F8443"/>
<path d="M106.424 43.7656C106.424 67.6822 87.0357 87.0703 63.1192 87.0703H19.3538V43.996C19.3538 19.9523 38.9606 0.460976 63.0043 0.460976C86.9208 0.460976 106.424 19.8491 106.424 43.7656Z" fill="#FFC51A"/>
<path d="M106.424 217.909C106.424 242.208 126.121 262.137 150.42 262.137H193.494V217.68C193.494 193.637 174.003 174.145 149.959 174.145C125.915 174.145 106.424 193.866 106.424 217.909Z" fill="#E14934"/>
<path d="M280.554 306.364C280.554 282.066 260.856 262.137 236.558 262.137H193.484V306.593C193.484 330.637 212.975 350.128 237.019 350.128C261.062 350.128 280.554 330.408 280.554 306.364Z" fill="#FFC51A"/>
<path d="M147.876 238.987C147.876 251.708 158.189 262.137 170.91 262.137H193.484V238.872C193.484 226.278 183.274 216.068 170.68 216.068C158.086 216.068 147.876 226.392 147.876 238.987Z" fill="#FFC51A"/>
<path d="M148.799 22.3473C148.799 10.0074 158.802 0.00390625 171.142 0.00390625H193.486V22.3473C193.486 34.6872 183.482 44.6906 171.142 44.6906C158.802 44.6906 148.799 34.6872 148.799 22.3473Z" fill="#2A438B"/>
<path d="M64.0322 64.7269C64.0322 77.0668 54.0288 87.0703 41.6889 87.0703H19.3455V64.7269C19.3455 52.387 29.349 42.3836 41.6889 42.3836C54.0288 42.3836 64.0322 52.387 64.0322 64.7269Z" fill="#E14934"/>
<path d="M280.554 262.137H395.265V350.589H369.006C320.155 350.589 280.554 310.987 280.554 262.137Z" fill="#EFEFEF"/>
<path d="M359.332 305.438H417.379V356.113H410.008C382.02 356.113 359.332 333.425 359.332 305.438Z" fill="#E14934"/>
<circle cx="-27.8761" cy="216.298" r="41.6923" fill="#E14934"/>
<path d="M19.3506 261.215C19.3506 213.127 58.3332 174.145 106.421 174.145V262.136H19.3506V261.215Z" fill="#D2E353"/>
<path d="M19.3506 262.137H105.499C154.096 262.137 193.491 301.532 193.491 350.128H107.342C58.7457 350.128 19.3506 310.733 19.3506 262.137Z" fill="#EFEFEF"/>
<path d="M193.489 350.586H107.341C58.7443 350.586 19.3492 389.981 19.3492 438.577H105.498C154.094 438.577 193.489 399.182 193.489 350.586Z" fill="#E14934"/>
<path d="M127.15 384.215H73.7106C43.6877 384.215 19.3494 408.553 19.3494 438.576H72.7892C102.812 438.576 127.15 414.238 127.15 384.215Z" fill="#2A438B"/>
<path d="M105.031 305.438H148.797C173.476 305.438 193.483 325.444 193.483 350.124H149.718C125.038 350.124 105.031 330.117 105.031 305.438Z" fill="#2A438B"/>
<circle cx="193.487" cy="416.465" r="13.8206" fill="#E14934"/>
<path d="M193.489 350.125H280.559V438.577H276.413C230.615 438.577 193.489 401.451 193.489 355.653V350.125Z" fill="#0F8443"/>
<path d="M367.627 438.578H280.557V527.03H284.703C330.501 527.03 367.627 489.904 367.627 444.106V438.578Z" fill="#0F8443"/>
<path d="M280.554 438.578H193.484V527.03H197.63C243.427 527.03 280.554 489.904 280.554 444.106V438.578Z" fill="#2A438B"/>
<path d="M106.424 438.578H193.494V527.03H189.348C143.55 527.03 106.424 489.904 106.424 444.106V438.578Z" fill="#EFEFEF"/>
<path d="M236.795 438.578H193.49V482.804C217.407 482.804 236.795 463.416 236.795 439.5V438.578Z" fill="#D2E353"/>
<circle cx="9.67251" cy="344.597" r="29.484" fill="#0F8443"/>
<circle cx="61.9613" cy="483.035" r="44.4564" fill="#0F8443"/>
<circle cx="61.958" cy="483.035" r="28.793" fill="#E14934"/>
<circle cx="9.67708" cy="344.594" r="13.8206" fill="#FFC51A"/>
<rect width="375" height="465.642" fill="url(#paint0_linear_3212_2872)"/>
</g>
<defs>
<linearGradient id="paint0_linear_3212_2872" x1="187" y1="181.496" x2="187" y2="465.996" gradientUnits="userSpaceOnUse">
<stop stop-color="white" stop-opacity="0"/>
<stop offset="1" stop-color="white"/>
</linearGradient>
<clipPath id="clip0_3212_2872">
<rect width="375" height="465.756" fill="white"/>
</clipPath>
</defs>
</svg>
