<svg width="159" height="51" viewBox="0 0 159 51" fill="none" xmlns="http://www.w3.org/2000/svg">
<path d="M21.7142 27.102L19.4425 49.4568C19.3732 50.0735 18.7316 50.4259 17.5466 50.4259H16.6969C15.9455 50.4259 14.9975 50.2908 14.9975 49.4568L15.986 39.9357H5.66826L4.71452 49.4568C4.64516 50.0735 4.00356 50.4259 2.81861 50.4259H1.96892C1.21749 50.4259 0.269531 50.2908 0.269531 49.4568L2.57584 27.102C2.60474 26.4852 3.25213 26.1328 4.44285 26.1328H5.29255C6.04398 26.1328 6.99193 26.2679 6.99193 27.102L6.07866 36.0709H16.3617L17.3154 27.102C17.3443 26.4852 17.9917 26.1328 19.1824 26.1328H20.0321C20.7835 26.1328 21.7315 26.2679 21.7315 27.102" fill="#00A0A8"/>
<path d="M30.367 43.2144C28.9451 43.2144 27.922 43.1087 27.0376 42.9736C27.107 46.2804 28.7717 47.1497 31.1127 47.1497C33.9681 47.1497 35.9681 45.5639 36.3727 45.5639C36.5056 45.5639 36.6386 45.5639 36.6386 46.0102C36.6097 46.1453 36.5345 47.6666 36.4016 48.2539C35.9276 50.0806 32.3265 50.5975 30.5983 50.5975C25.8758 50.5975 22.7256 48.389 22.7256 43.1851C22.7256 35.8725 26.4596 32.0781 32.0606 32.0781C37.153 32.0781 38.3438 35.1441 38.3438 36.9062C38.3495 41.5992 34.1704 43.2144 30.367 43.2144ZM29.1474 40.1484C31.5578 40.1484 34.1358 39.3555 34.1358 37.4231C34.1358 36.2542 33.182 35.5259 31.7254 35.5259C28.9451 35.5259 27.7197 37.6345 27.2457 40.1484H29.1474Z" fill="#00A0A8"/>
<path d="M56.2738 47.2829C56.2738 47.3122 56.2449 48.0053 56.0657 49.0449C55.8576 50.1844 54.4068 50.5956 53.4183 50.5956C51.3837 50.5956 50.0889 49.7321 49.7826 47.694C48.6612 49.5207 46.9271 50.6249 44.9619 50.6249C42.0428 50.6249 39.3955 48.4165 39.3955 43.1361C39.3955 36.5812 42.5515 32.0703 47.2046 32.0703C49.2045 32.0703 50.6669 33.2098 51.4126 33.9381C51.7536 32.7693 51.9213 32.2818 53.349 32.2818H53.69C54.8114 32.2818 55.2507 32.5519 55.2507 33.0747C55.2507 33.1804 53.9617 45.2212 53.9617 45.9026C53.9617 46.9363 54.401 47.1478 55.0484 47.1478C55.4877 47.1478 55.8634 46.9363 56.0021 46.9363C56.1755 46.9422 56.2738 47.0127 56.2738 47.2829ZM50.771 36.6634C50.1641 36.1466 49.2739 35.5592 48.0601 35.5592C44.9676 35.5592 43.7133 38.5606 43.7133 42.8718C43.7133 45.838 44.7307 47.0479 46.3954 47.0479C47.6497 47.0479 49.0138 46.0142 49.9271 43.6647C50.1352 41.797 50.3664 38.866 50.4357 38.3844C50.5051 37.9086 50.6091 37.4211 50.771 36.6634Z" fill="#00A0A8"/>
<path d="M64.9322 25.2111C64.9322 25.2111 62.8281 45.428 62.8281 45.9096C62.8281 46.914 63.2674 47.1548 63.9148 47.1548C64.3541 47.1548 64.6952 46.9433 64.8686 46.9433C65.0362 46.9433 65.1056 47.0138 65.1056 47.2899C65.1056 47.3193 65.1056 48.0123 64.9322 49.052C64.7241 50.1914 63.2732 50.6026 62.2848 50.6026C59.8745 50.6026 58.5508 49.4337 58.5508 46.6027C58.5508 45.3575 60.7241 25.3168 60.7241 25.2875C60.7935 24.6707 61.2328 24.3594 62.3542 24.3594H63.4409C64.5564 24.3536 64.9322 24.7001 64.9322 25.2111Z" fill="#00A0A8"/>
<path d="M73.8625 28.8989L73.5214 32.3114H75.8278C76.3017 32.3114 76.3711 32.5229 76.3711 32.9986C76.3711 33.862 75.8971 35.7944 74.5734 35.7944H73.1515C73.1515 35.7944 72.1342 45.386 72.1342 45.6914C72.1342 46.7604 72.6082 47.1363 73.3885 47.1363C74.1688 47.1363 74.5792 46.8955 74.7468 46.8955C74.9145 46.8955 75.0127 46.966 75.0127 47.2714C75.0127 47.3008 74.9838 48.0643 74.8047 49.0335C74.5966 50.1729 73.1746 50.5841 72.0533 50.5841C69.7816 50.5841 67.8453 49.5503 67.8453 46.3081C67.8453 45.4447 68.9319 35.7827 68.9319 35.7827H67.8799C67.3019 35.7827 67.0996 35.4068 67.0996 34.6432C67.0996 33.5037 67.3077 32.2997 68.221 32.2997H69.273L69.6429 28.8871C69.7123 28.2293 70.3539 27.918 71.5099 27.918H72.1573C73.3827 27.9238 73.8567 28.3409 73.8625 28.8989Z" fill="#00A0A8"/>
<path d="M83.7361 25.3147L82.7823 34.7653C84.1754 33.109 86.1407 32.0752 88.1117 32.0752C91.233 32.0752 92.5914 33.6611 92.5914 36.4922C92.5914 37.1794 91.6781 45.2555 91.6781 45.9075C91.6781 46.9119 92.1174 47.1527 92.7995 47.1527C93.2388 47.1527 93.5798 46.9412 93.7532 46.9412C93.9266 46.9412 93.9902 47.0117 93.9902 47.2878C93.9902 47.3172 93.9613 48.0102 93.7821 49.0499C93.6087 50.1893 92.1232 50.6005 91.1348 50.6005C88.7591 50.6005 87.4354 49.4316 87.4354 46.6006C87.4354 45.6726 88.2504 38.2895 88.2504 37.7315C88.2504 36.3864 87.6435 35.664 86.1464 35.664C84.7881 35.664 83.291 36.6977 82.343 38.9062L81.2564 49.461C81.187 50.0777 80.5049 50.4301 79.3605 50.4301H78.7131C77.5223 50.4301 77.0137 49.9838 77.0137 49.5021L79.5281 25.3559C79.5974 24.698 80.239 24.3867 81.3951 24.3867H82.0425C83.2621 24.3867 83.7361 24.7979 83.7361 25.3147Z" fill="#00A0A8"/>
<path d="M100.643 33.2094C100.643 33.2094 99.3535 45.2796 99.3535 45.9022C99.3535 46.9065 99.7639 47.1474 100.44 47.1474C100.88 47.1474 101.221 46.9359 101.394 46.9359C101.567 46.9359 101.631 47.0064 101.631 47.2824C101.631 47.3118 101.602 48.0049 101.423 49.0445C101.249 50.184 99.7639 50.5951 98.7755 50.5951C96.3998 50.5951 95.0762 49.4263 95.0762 46.6305C95.0762 45.491 96.3652 33.2152 96.3998 33.2152C96.4692 32.5574 97.1108 32.2461 98.2669 32.2461H98.9431C100.134 32.252 100.643 32.669 100.643 33.2094Z" fill="#00A0A8"/>
<path d="M119.215 47.2829C119.215 47.3122 119.186 48.0053 119.007 49.0449C118.799 50.1844 117.348 50.5956 116.36 50.5956C114.325 50.5956 113.03 49.7321 112.724 47.694C111.603 49.5207 109.869 50.6249 107.903 50.6249C104.984 50.6249 102.337 48.4165 102.337 43.1361C102.337 36.5812 105.493 32.0703 110.146 32.0703C112.146 32.0703 113.608 33.2098 114.354 33.9381C114.695 32.7693 114.863 32.2818 116.29 32.2818H116.631C117.753 32.2818 118.192 32.5519 118.192 33.0747C118.192 33.1804 116.903 45.2212 116.903 45.9026C116.903 46.9363 117.342 47.1478 117.99 47.1478C118.429 47.1478 118.805 46.9363 118.943 46.9363C119.117 46.9363 119.209 47.0068 119.209 47.2829M113.707 36.6634C113.1 36.1466 112.21 35.5592 110.996 35.5592C107.903 35.5592 106.649 38.5606 106.649 42.8718C106.649 45.838 107.666 47.0479 109.331 47.0479C110.585 47.0479 111.949 46.0142 112.863 43.6647C113.071 41.797 113.302 38.866 113.371 38.3844C113.447 37.9086 113.551 37.4211 113.707 36.6634Z" fill="#00A0A8"/>
<path d="M137.041 47.2828C137.041 47.3122 137.012 48.0053 136.833 49.0449C136.659 50.1844 135.174 50.5955 134.186 50.5955C131.81 50.5955 130.486 49.4267 130.486 46.5956C130.486 45.6676 131.301 38.2845 131.301 37.7265C131.301 36.3815 130.689 35.659 129.197 35.659C127.839 35.659 126.278 36.7985 125.359 39.007C124.949 43.5296 124.307 49.4561 124.307 49.4561C124.238 50.0728 123.596 50.4252 122.411 50.4252H121.764C120.573 50.4252 120.064 49.9788 120.064 49.4972C120.879 41.3623 121.423 36.6341 121.423 35.2185C121.423 34.3903 121.394 33.9733 121.394 33.5622C121.394 32.7986 123.093 32.4932 124.585 32.4932C125.4 32.4932 125.602 33.7677 125.602 35.0482C126.891 33.3214 129.064 32.082 131.168 32.082C134.29 32.082 135.648 33.6679 135.648 36.499C135.648 37.1862 134.735 45.2623 134.735 45.9143C134.735 46.9187 135.174 47.1595 135.856 47.1595C136.295 47.1595 136.636 46.948 136.81 46.948C136.977 46.9422 137.041 47.0185 137.041 47.2828Z" fill="#00A0A8"/>
<path d="M150.815 33.9694C150.815 34.6273 149.827 36.2425 149.254 36.2425C149.121 36.2425 148.913 36.172 148.642 36.0722C148.064 35.8314 147.283 35.5201 146.301 35.5201C144.775 35.5201 143.994 36.2425 143.994 37.3115C143.994 38.3805 144.983 38.8974 146.405 39.6551C148.642 40.7945 150.48 41.9634 150.48 44.8297C150.48 48.348 147.728 50.5858 143.694 50.5858C141.694 50.5858 138.734 49.9691 138.734 48.5183C138.734 46.3803 139.312 45.8987 139.515 45.8987C139.619 45.8987 139.856 46.0044 140.127 46.1689C140.734 46.5154 141.89 47.138 143.353 47.138C145.15 47.138 146.133 46.2746 146.133 45.1351C146.133 43.8253 144.809 43.2379 143.411 42.5155C141.376 41.4113 139.607 40.307 139.607 37.5523C139.607 34.0987 142.422 32.0664 146.127 32.0664C147.861 32.0723 150.815 32.5187 150.815 33.9694Z" fill="#00A0A8"/>
<path d="M101.944 25.8737C101.915 25.8268 101.886 25.7856 101.846 25.7328C101.834 25.721 101.823 25.7034 101.817 25.7034C101.753 25.6329 101.673 25.5683 101.592 25.5155L101.563 25.4978L101.534 25.4861C101.505 25.4685 101.476 25.4567 101.436 25.4391L101.383 25.4156C101.383 25.4156 101.337 25.398 101.314 25.3921C101.291 25.3862 101.256 25.3745 101.227 25.3686C101.21 25.3686 101.199 25.3627 101.181 25.3569C101.181 25.3569 100.938 25.304 100.384 25.3862C100.095 25.4332 99.7014 25.2981 99.4876 25.2218C99.32 25.163 99.1639 25.0867 99.0194 24.9868C98.8402 24.8752 98.6841 24.7401 98.5512 24.5933C98.4992 24.5404 98.4471 24.4935 98.3951 24.4523C98.372 24.4347 98.3489 24.423 98.3315 24.4053C98.2969 24.376 98.2622 24.3584 98.2275 24.3407C98.1986 24.3172 98.1639 24.3114 98.1292 24.2938C98.0946 24.2761 98.0714 24.2644 98.0194 24.2468C97.9847 24.235 97.9443 24.2174 97.9154 24.2174L97.8691 24.2056H97.846C97.5801 24.1587 97.3258 24.2291 97.1119 24.3995C97.0079 24.4817 96.9269 24.5757 96.846 24.6873L96.7246 24.8694C96.3663 25.4156 96.2738 26.3143 96.7362 26.8664C96.8634 27.0191 97.0252 27.1777 97.1871 27.3186L96.9732 27.9412C96.8171 28.3876 97.083 28.8516 97.6032 29.0337L98.8575 29.4801C99.3373 29.6505 99.7477 29.4566 99.9095 28.9926L100.147 28.3054H100.199C100.233 28.3054 100.297 28.3171 100.378 28.3113C100.424 28.3113 100.459 28.3113 100.505 28.3113C100.505 28.3113 100.661 28.2937 100.707 28.2878H100.719L100.829 28.2702C100.933 28.2525 101.031 28.2232 101.123 28.1821C101.147 28.1703 101.17 28.1586 101.199 28.1468C101.268 28.1116 101.331 28.0705 101.389 28.0235L101.447 27.9765C101.505 27.9295 101.568 27.8708 101.626 27.812C101.638 27.8003 101.649 27.7827 101.655 27.7827C101.909 27.4948 102.066 27.1248 102.083 26.7724L102.1 26.5375C102.112 26.3143 102.071 26.1028 101.973 25.9149L101.944 25.8737Z" fill="#00A0A8"/>
<path d="M94.3203 12.688C94.3435 12.5999 94.3666 12.5059 94.3839 12.4178C94.4591 12.1535 94.5515 11.9009 94.6556 11.6484C94.6729 11.6131 94.6845 11.572 94.7018 11.5368L94.7596 11.4076C94.777 11.3782 94.8059 11.3312 94.8232 11.2842C94.8521 11.2372 94.8695 11.1961 94.8868 11.1726C94.9215 11.1021 94.9677 11.0375 95.014 10.9671C95.0602 10.8907 95.1122 10.8202 95.1585 10.7556C95.3492 10.4854 95.5689 10.2505 95.8174 10.0508C95.8694 10.0038 95.9272 9.96267 95.985 9.92156C96.0949 9.83933 96.222 9.76297 96.3492 9.70423C96.4128 9.67487 96.4764 9.6455 96.54 9.61613C96.6035 9.58676 96.6729 9.56914 96.748 9.54565C96.933 9.48691 97.1295 9.43992 97.3318 9.41643L97.4417 9.40468C97.5515 9.39293 97.6671 9.38706 97.7827 9.38119C97.8405 9.38119 97.9099 9.38119 97.9677 9.38119C98.0544 9.38119 98.1411 9.38119 98.2278 9.39293H98.2567C98.3029 9.39293 98.3434 9.39881 98.3896 9.40468C98.4763 9.41643 98.5746 9.42818 98.6613 9.43992C98.6613 9.43992 98.7711 9.45754 98.7942 9.46342C98.933 9.49279 99.0601 9.52215 99.1815 9.56327C99.2278 9.58089 99.2682 9.59264 99.3087 9.61026C99.3954 9.63962 99.4763 9.66899 99.5514 9.71011C99.8347 9.83933 100.095 10.0038 100.314 10.1976C100.523 9.76297 100.858 9.42818 101.384 9.36357C101.586 9.34007 101.783 9.36357 101.985 9.43405C101.939 9.35182 101.898 9.26959 101.858 9.19323C101.569 8.69398 101.141 8.22409 100.632 7.84818C100.453 7.71897 100.268 7.60149 100.077 7.48402C99.7942 7.31956 99.4763 7.1786 99.1642 7.06113C98.8231 6.93778 98.4648 6.84968 98.0948 6.78507C97.8867 6.7557 97.6555 6.72633 97.407 6.70871H97.3434L97.2451 6.70284C96.7365 6.68522 96.222 6.73221 95.7423 6.83793C95.6787 6.84968 95.6151 6.8673 95.5515 6.88492H95.4995L95.3377 6.94365L95.1296 7.00826L94.8868 7.09637C94.6036 7.20797 94.3492 7.34306 94.0834 7.50164C93.9504 7.58387 93.8175 7.67785 93.6614 7.78945L93.6383 7.80707C93.3493 8.01852 93.0603 8.27108 92.8001 8.55301L92.7828 8.57063C92.6325 8.72922 92.4938 8.88781 92.3666 9.04639L92.3493 9.06401C92.2395 9.19911 92.1354 9.35182 92.0198 9.52215L91.9562 9.622C91.8348 9.80996 91.7424 9.96855 91.6614 10.1213C91.5921 10.2505 91.5227 10.3914 91.4534 10.5265C91.0141 11.4369 90.7424 12.4766 90.6499 13.5338C90.5516 14.6028 90.6268 15.7423 90.8869 16.9287C90.9447 17.1989 91.0141 17.4632 91.0892 17.7158C91.1643 17.9801 91.2453 18.2327 91.332 18.4852C91.4187 18.7319 91.5169 18.9727 91.6152 19.2194C91.7192 19.4602 91.8233 19.6952 91.9331 19.9243L92.0892 20.2356L92.2568 20.5527C92.3666 20.77 92.488 20.9815 92.5978 21.1812C92.8001 21.5277 93.0198 21.886 93.3146 22.3442C93.4418 22.5321 93.5573 22.7083 93.6787 22.8787C93.9157 23.2135 94.1585 23.5482 94.4128 23.8654C94.54 24.024 94.6556 24.1708 94.777 24.3177C94.9851 24.5644 95.1874 24.7993 95.3839 25.0166L95.5053 25.1459L95.8463 25.51C95.881 25.5453 95.9157 25.5805 95.9561 25.6216C96.0024 25.2457 96.1353 24.8874 96.3203 24.6114L96.4417 24.4293C96.5457 24.2766 96.6613 24.1415 96.8058 24.0299C97.037 23.8419 97.3029 23.7421 97.5804 23.7186C97.3954 23.3897 97.2162 23.0725 97.037 22.7494C96.6613 22.0564 96.3203 21.4044 96.0082 20.7524C95.9215 20.5762 95.8348 20.4 95.7538 20.2179C95.6671 20.0359 95.5862 19.8479 95.4995 19.6599C95.4186 19.472 95.3319 19.2899 95.2567 19.102L95.1354 18.8259L95.0082 18.5028C94.7018 17.7569 94.4706 16.9757 94.3146 16.1887C94.2568 15.8597 94.1816 15.4192 94.1469 14.9904C94.1296 14.7849 94.1238 14.5852 94.118 14.3972C94.118 14.2034 94.118 14.0037 94.1296 13.8157C94.1585 13.4222 94.2105 13.0463 94.2914 12.6939" fill="#00A0A8"/>
<path d="M103.393 12.0928C103.312 11.3997 102.584 10.1075 101.85 9.84907C101.717 9.80208 101.578 9.7962 101.445 9.81382C100.376 9.94304 100.393 11.9459 100.451 12.4746C100.526 13.0972 100.931 13.5788 101.48 13.8607C101.688 13.8607 101.896 13.9253 102.11 13.896C102.925 13.7902 103.497 12.9797 103.393 12.0928Z" fill="#00A0A8"/>
<path d="M115.036 14.9897C114.926 14.7019 114.805 14.4317 114.655 14.1615L114.545 13.9677L114.418 13.768L114.331 13.6035L114.302 13.5918L114.285 13.5683C114.25 13.5154 114.204 13.4567 114.175 13.4215C113.834 12.9927 113.441 12.6109 113.002 12.282C112.794 12.1352 112.585 11.9942 112.366 11.8708C112.042 11.6829 111.707 11.5302 111.366 11.4068C111.042 11.2952 110.713 11.2013 110.395 11.1484C109.643 11.0192 108.898 11.0603 108.227 11.26C108.14 11.2894 108.042 11.3187 107.961 11.3481C107.875 11.3775 107.788 11.4127 107.701 11.4538C107.736 11.4656 107.77 11.4832 107.805 11.5008C107.961 11.5713 108.094 11.6653 108.216 11.7886C108.458 12.0353 108.672 12.4641 108.528 13.1219C108.898 13.1043 109.291 13.1689 109.678 13.304C109.724 13.3216 109.765 13.3334 109.811 13.351C110.337 13.5624 110.863 13.9148 111.285 14.3554C111.741 14.8194 112.019 15.3363 112.129 15.9001C112.192 16.1938 112.215 16.5168 112.204 16.8458C112.192 17.0102 112.181 17.1806 112.158 17.3509C112.152 17.3803 112.14 17.4272 112.135 17.4801C112.129 17.5271 112.117 17.5858 112.106 17.6328L112.094 17.6857C112.083 17.7444 112.065 17.809 112.048 17.8913C112.002 18.0792 111.938 18.2848 111.857 18.5021C111.77 18.7312 111.655 18.9661 111.528 19.2069C111.476 19.3068 111.418 19.4125 111.354 19.5065L111.308 19.5711C111.244 19.6768 111.181 19.7825 111.117 19.8707C110.898 20.182 110.643 20.4874 110.377 20.7811C110.088 21.0982 109.759 21.3919 109.51 21.6092C109.354 21.7384 109.198 21.8677 109.036 21.9851C108.562 22.3493 108.059 22.6782 107.533 22.9719L107.25 23.1364L106.979 23.2832C106.892 23.3302 106.805 23.3713 106.718 23.4183C106.632 23.4653 106.539 23.5064 106.447 23.5593C106.065 23.7531 105.719 23.9293 105.377 24.0879C104.742 24.3933 104.071 24.6929 103.354 24.9924C102.99 25.1451 102.62 25.292 102.233 25.4388C102.279 25.4975 102.32 25.5621 102.36 25.6268L102.389 25.6855C102.534 25.9557 102.597 26.2552 102.574 26.5724L102.557 26.8073C102.534 27.2009 102.378 27.612 102.135 27.9527C102.366 27.9292 102.609 27.8998 102.852 27.8646L103.06 27.8352L103.21 27.8058C103.499 27.7589 103.805 27.706 104.123 27.6414C104.921 27.4769 105.719 27.2714 106.487 27.0305C106.984 26.8661 107.383 26.7251 107.753 26.5841C107.967 26.5019 108.181 26.4138 108.406 26.314L108.742 26.1671L109.048 26.0262C109.499 25.8147 109.961 25.568 110.406 25.292C110.828 25.0276 111.273 24.7163 111.713 24.3639C112.637 23.6121 113.4 22.7663 113.984 21.8677C114.424 21.1981 114.765 20.4815 115.013 19.7356L115.025 19.7062C115.059 19.5946 115.094 19.4771 115.129 19.3596L115.175 19.1952C115.198 19.1188 115.21 19.0483 115.227 18.972C115.256 18.8369 115.285 18.7018 115.308 18.5608C115.377 18.1614 115.412 17.7444 115.418 17.3274C115.418 16.8164 115.371 16.323 115.279 15.8649C115.215 15.5771 115.129 15.2834 115.036 14.9897Z" fill="#00A0A8"/>
<path d="M107.029 14.7914C107.399 14.4213 108.648 12.8766 107.89 12.0954C107.804 11.9956 107.682 11.9251 107.549 11.8781C106.815 11.6138 105.469 12.1541 104.971 12.6475C104.677 12.9412 104.497 13.3347 104.469 13.7341C104.44 14.1629 104.578 14.5564 104.862 14.8501C105.012 15.0087 105.191 15.1203 105.393 15.1966C105.943 15.3846 106.59 15.226 107.029 14.7914Z" fill="#00A0A8"/>
<path d="M123.312 3.30766C121.526 3.30766 120.052 4.64683 119.798 6.39128C113.538 7.33693 107.66 4.20631 103.723 2.1212L103.336 1.91562C99.2667 -0.245855 95.8506 -0.568901 92.5732 0.899492C90.342 1.90387 88.3536 3.7423 86.9837 6.07998C85.5097 8.60562 84.7756 11.6011 84.8681 14.767H84.8797C84.9317 16.8756 85.3537 19.1252 86.2091 21.4394H86.2265C86.5964 22.3792 87.0415 23.3072 87.5675 24.2058C88.5964 25.9738 91.5443 29.1455 94.5095 30.4729C95.3824 30.8665 96.1685 31.119 96.9026 31.1014C97.8736 31.072 98.6886 30.7314 99.3187 30.0324C99.1164 30.0559 98.9141 30.0324 98.7002 29.9561L97.4459 29.5097C97.3997 29.4921 97.3592 29.4803 97.3187 29.4627C97.0239 29.3335 96.7985 29.122 96.654 28.8812C96.2783 28.8636 95.839 28.7461 95.3477 28.5288C93.157 27.542 90.5443 24.9342 89.4807 23.1133C89.0299 22.338 88.6368 21.5275 88.3131 20.6993H88.3247C86.6427 16.1532 86.8334 11.9301 88.1975 8.6761C89.4056 5.86854 91.4287 3.89501 93.4749 2.97874C96.0875 1.8099 98.8967 2.11532 102.313 3.93026L102.694 4.13583C106.897 6.37366 113.185 9.7216 120.18 8.63499C120.781 9.77446 121.96 10.5439 123.312 10.5439C125.278 10.5439 126.861 8.92279 126.861 6.93753C126.861 4.95226 125.266 3.33115 123.312 3.33115M123.312 8.68785C122.353 8.68785 121.578 7.90079 121.578 6.92578C121.578 5.95077 122.353 5.16371 123.312 5.16371C124.272 5.16371 125.046 5.95077 125.046 6.92578C125.046 7.90079 124.272 8.68785 123.312 8.68785Z" fill="#00A0A8"/>
<path d="M155.417 35.3472C157.125 35.3472 158.509 33.9403 158.509 32.2049C158.509 30.4694 157.125 29.0625 155.417 29.0625C153.709 29.0625 152.324 30.4694 152.324 32.2049C152.324 33.9403 153.709 35.3472 155.417 35.3472Z" stroke="#00A0A8" stroke-width="0.693362" stroke-miterlimit="10"/>
<path d="M156.272 32.7236C156.434 32.9351 156.538 33.2405 156.527 33.6575H155.625C155.619 33.2933 155.515 33.0114 155.382 32.8293C155.307 32.7295 155.232 32.706 155.122 32.706H155.11L154.96 33.6575H154.116L154.573 30.7148H155.625C156.382 30.7148 156.752 30.985 156.752 31.5195C156.752 32.0012 156.411 32.336 155.937 32.4475V32.471C156.064 32.5063 156.174 32.6061 156.272 32.7236ZM155.879 31.6899C155.879 31.4784 155.769 31.4021 155.521 31.4021H155.307L155.209 32.0129H155.451C155.729 32.0188 155.879 31.9307 155.879 31.6899Z" fill="#00A0A8"/>
</svg>
