<svg width="199" height="56" viewBox="0 0 199 56" fill="none" xmlns="http://www.w3.org/2000/svg">
<g clip-path="url(#clip0_2797_1230)">
<path fill-rule="evenodd" clip-rule="evenodd" d="M21.8521 54.647C21.0222 54.6022 20.2377 54.1445 19.8447 53.1803C19.4518 52.2351 19.6042 51.3143 20.3446 50.5674L23.7446 47.2021C24.1242 46.8476 24.1683 46.6358 23.7767 46.2555L18.5403 41.0759C18.1474 40.6766 17.9322 40.754 17.5848 41.1085L14.1914 44.4737C12.7413 45.8182 10.5067 45.1175 10.1138 43.2067C10.0277 42.845 10.0369 42.4668 10.1403 42.1099C10.2438 41.753 10.4379 41.4301 10.7032 41.1736L16.3632 35.5635C16.575 35.3493 16.8264 35.1797 17.1028 35.0644C17.3792 34.9491 17.6753 34.8903 17.9742 34.8914C18.273 34.8926 18.5686 34.9536 18.8442 35.071C19.1198 35.1884 19.3699 35.3599 19.5801 35.5757L29.3498 45.2519C30.2546 46.1523 30.2546 47.4968 29.3618 48.4176L23.7018 54.0277C23.2581 54.465 22.6821 54.6647 21.8535 54.6457L21.8521 54.647ZM35.8625 28.5857C35.8304 31.0628 35.1982 33.3729 33.8243 35.4182C33.4448 35.9845 33.5397 36.2615 33.9887 36.654C34.653 37.2325 35.2544 37.8898 35.8758 38.52C36.8448 39.5304 36.8769 40.9075 35.9841 41.8853C35.1034 42.8183 33.5971 42.9527 32.6469 42.0659L28.2779 37.7364C27.3598 36.7776 27.4801 35.4141 28.5065 34.3915C29.8425 33.1 30.7048 31.3839 30.9509 29.5269C31.5403 25.2354 28.2793 21.0281 23.9918 20.5582C21.212 20.2554 18.8437 21.0607 16.8497 23.0679L4.87614 34.9252C4.27473 35.5363 3.57842 35.903 2.71639 35.7998C1.74744 35.6775 1.02574 35.1751 0.69028 34.2108C0.354823 33.2466 0.582025 32.3897 1.2917 31.6889L7.38873 25.6537L13.9228 19.2069C21.1091 12.3935 33.0505 15.8865 35.4829 25.5056C35.7306 26.5136 35.858 27.5468 35.8625 28.5857Z" fill="#10847E"/>
<path d="M49.5912 22.8615H57.8413C59.8808 22.8615 61.5327 23.4984 62.7983 24.7791C64.064 26.0597 64.6975 27.7329 64.6975 29.8175C64.6975 31.8763 64.0453 33.5495 62.7342 34.8165C61.4231 36.0836 59.7271 36.7206 57.6368 36.7206H53.733V42.9622H49.5926V22.8629L49.5912 22.8615ZM53.7316 26.3096V33.3037H56.7334C57.9295 33.3037 58.8544 33.0008 59.5066 32.4087C60.1588 31.8166 60.4876 30.9488 60.4876 29.8216C60.4876 28.6944 60.1641 27.8211 59.5119 27.2155C58.8597 26.6098 57.9416 26.3083 56.7387 26.3083H53.733L53.7316 26.3096ZM67.1299 42.969V21.737H71.0498V30.1204H71.297C71.6367 29.2595 72.2409 28.5331 73.0198 28.0493C73.811 27.5536 74.7612 27.3024 75.8625 27.3024C77.4956 27.3024 78.7693 27.8048 79.6808 28.8085C80.5923 29.8121 81.048 31.234 81.048 33.0741V42.9636H77.0586V34.0397C77.0586 32.9777 76.8247 32.1805 76.3436 31.6264C75.8625 31.0724 75.1782 30.8035 74.2734 30.8035C73.2857 30.8035 72.5132 31.1063 71.9559 31.7174C71.3986 32.3286 71.1206 33.1393 71.1206 34.1497V42.9704H67.1312L67.1299 42.969ZM88.4895 43.208C87.0274 43.208 85.8366 42.783 84.9185 41.941C84.0003 41.099 83.5379 39.9786 83.5379 38.5825C83.5379 37.1986 84.0444 36.1054 85.0508 35.3136C86.0571 34.5218 87.5072 34.0655 89.3876 33.9555L93.0469 33.7301V32.4752C93.0469 31.8315 92.8251 31.3358 92.3881 30.9895C91.951 30.6432 91.3175 30.468 90.4956 30.468C89.0134 30.468 88.1086 30.9447 87.7665 31.8899H84.0938C84.2208 30.468 84.885 29.3422 86.0759 28.5124C87.2667 27.6826 88.817 27.2643 90.7175 27.2643C92.7115 27.2643 94.2511 27.7207 95.3457 28.6278C96.4403 29.535 96.9856 30.8225 96.9856 32.4752V42.969H93.1231V40.9618H92.8759C92.4829 41.6693 91.8949 42.2166 91.1224 42.6159C90.3499 43.0152 89.4719 43.208 88.4895 43.208ZM89.806 40.1578C90.7308 40.1578 91.5033 39.8944 92.1234 39.3606C92.7436 38.8269 93.0536 38.1764 93.0536 37.3982V36.2724L89.9958 36.4652C88.2931 36.5875 87.4444 37.2054 87.4444 38.3176C87.4444 38.884 87.6596 39.3348 88.0966 39.6621C88.5336 39.9894 89.103 40.1578 89.806 40.1578ZM100.347 42.969V27.6052H104.209V30.0565H104.456C104.66 29.2784 105.115 28.6278 105.837 28.1199C106.559 27.612 107.389 27.354 108.338 27.354C109.022 27.354 109.54 27.4178 109.901 27.5468V31.2394C109.476 31.0724 108.85 30.9882 108.008 30.9882C106.9 30.9882 106.013 31.2964 105.341 31.9211C104.669 32.5459 104.335 33.3879 104.335 34.4567V42.969H100.347ZM112.203 42.969V27.6039H116.065V30.1136H116.312C116.622 29.2322 117.148 28.5368 117.895 28.0289C118.642 27.521 119.509 27.2698 120.49 27.2698C121.542 27.2698 122.428 27.521 123.143 28.0154C123.858 28.5097 124.371 29.2118 124.669 30.1122H124.917C125.271 29.2498 125.86 28.5613 126.67 28.0398C127.48 27.5183 128.418 27.2684 129.469 27.2684C130.975 27.2684 132.172 27.7315 133.047 28.6645C133.921 29.5975 134.363 30.8456 134.363 32.4277V42.9731H130.375V33.4979C130.375 31.6767 129.533 30.7695 127.854 30.7695C127.05 30.7695 126.404 31.033 125.923 31.5477C125.442 32.0624 125.195 32.7441 125.195 33.5685V42.9744H121.351V33.3363C121.351 32.5255 121.129 31.8953 120.692 31.4513C120.255 31.0072 119.642 30.7749 118.856 30.7749C118.495 30.7629 118.137 30.8316 117.805 30.9762C117.474 31.1208 117.178 31.3377 116.938 31.6115C116.438 32.171 116.184 32.8732 116.184 33.7287V42.9812L112.201 42.969H112.203ZM151.18 39.3647V42.9609H138.073V22.8561H151.18V26.4522H142.215V31.1484H150.673V34.4743H142.215V39.3647H151.18ZM158.156 43.208C156.694 43.208 155.503 42.783 154.585 41.941C153.667 41.099 153.206 39.9786 153.206 38.5825C153.206 37.1986 153.713 36.1054 154.719 35.3136C155.725 34.5218 157.175 34.0655 159.056 33.9555L162.715 33.7301V32.4752C162.715 31.8315 162.495 31.3358 162.058 30.9895C161.62 30.6432 160.987 30.468 160.164 30.468C158.683 30.468 157.777 30.9447 157.435 31.8899H153.762C153.889 30.468 154.555 29.3422 155.744 28.5124C156.933 27.6826 158.486 27.2643 160.386 27.2643C162.38 27.2643 163.919 27.7207 165.014 28.6278C166.108 29.535 166.654 30.8225 166.654 32.4752V42.969H162.791V40.9618H162.544C162.152 41.6693 161.563 42.2166 160.791 42.6159C160.018 43.0152 159.139 43.208 158.156 43.208ZM159.474 40.1578C160.398 40.1578 161.17 39.8944 161.792 39.3606C162.413 38.8269 162.722 38.1764 162.722 37.3982V36.2724L159.664 36.4652C157.96 36.5875 157.113 37.2054 157.113 38.3176C157.113 38.884 157.328 39.3348 157.765 39.6621C158.202 39.9894 158.771 40.1578 159.474 40.1578ZM169.118 32.1154C169.101 31.4292 169.25 30.7494 169.553 30.1357C169.855 29.5221 170.302 28.9935 170.853 28.5966C172.012 27.7098 173.531 27.2643 175.412 27.2643C177.331 27.2643 178.837 27.6568 179.926 28.4486C181.016 29.2403 181.617 30.3662 181.731 31.8329H178.039C177.992 31.5876 177.894 31.3555 177.751 31.1523C177.608 30.9492 177.424 30.7797 177.211 30.6554C176.76 30.3716 176.165 30.2304 175.43 30.2304C174.709 30.2304 174.114 30.3852 173.652 30.6867C173.189 30.9882 172.955 31.382 172.955 31.8641C172.955 32.2376 173.12 32.5459 173.45 32.7903C173.78 33.0348 174.292 33.2412 175 33.3946L177.837 34.0248C179.306 34.3534 180.382 34.8478 181.066 35.5173C181.751 36.1868 182.086 37.094 182.086 38.2321C182.086 39.7572 181.471 40.9795 180.25 41.9124C179.022 42.8386 177.419 43.3085 175.425 43.3085C173.431 43.3085 171.854 42.9093 170.695 42.1121C169.536 41.3149 168.884 40.1755 168.744 38.702H172.638C172.962 39.802 173.911 40.3425 175.507 40.3425C176.286 40.3425 176.913 40.1877 177.4 39.8862C177.888 39.5847 178.129 39.1909 178.129 38.6965C178.132 38.5169 178.092 38.339 178.014 38.1779C177.936 38.0168 177.821 37.8771 177.678 37.7703C177.375 37.5327 176.894 37.3398 176.223 37.1918L173.48 36.5617C172.012 36.233 170.916 35.7129 170.194 34.9782C169.472 34.2434 169.118 33.2996 169.118 32.1154ZM185.691 48.5588C184.842 48.5588 184.335 48.5452 184.171 48.5208V45.2587C184.259 45.2777 184.564 45.2845 185.077 45.2845C185.836 45.2845 186.431 45.1501 186.856 44.8852C187.281 44.6204 187.584 44.2035 187.749 43.625L187.888 43.0709L182.582 27.6039H186.983L190.161 39.2493H190.408L193.586 27.6039H197.81L192.599 43.2067C191.959 45.1759 191.123 46.5584 190.085 47.3569C189.046 48.1555 187.584 48.5588 185.691 48.5588ZM50.9464 13.6199H49.3507L51.9207 2.41852H48.1465L48.4499 1.13108H57.5994L57.3214 2.41852H53.5285L50.9464 13.6199ZM60.5798 4.08623C61.1179 4.07774 61.6473 4.22518 62.106 4.5113C62.5498 4.79378 62.8972 5.19984 63.1445 5.72677H63.2461L63.8662 4.26006H65.0436L62.8785 13.6212H61.6436L61.8842 11.8394H61.808C60.7001 13.1459 59.528 13.795 58.3064 13.795C57.4457 13.795 56.7681 13.5126 56.2803 12.9517C55.7925 12.3908 55.5452 11.614 55.5452 10.6348C55.5452 9.45059 55.7671 8.35056 56.2041 7.34016C56.6412 6.32975 57.2493 5.53257 58.0271 4.95947C58.8049 4.38636 59.6549 4.08487 60.5784 4.08487L60.5798 4.08623ZM58.813 12.6054C59.4144 12.6054 60.0091 12.3419 60.6052 11.8136C61.2012 11.2853 61.681 10.5982 62.0553 9.7548C62.4295 8.91144 62.6126 8.06265 62.6126 7.21386C62.6126 6.62853 62.4415 6.15864 62.094 5.81097C61.7465 5.46331 61.2895 5.28948 60.7268 5.28948C60.0813 5.28948 59.4852 5.53393 58.9292 6.02283C58.3732 6.51173 57.9416 7.17447 57.6248 8.01104C57.3063 8.85716 57.1454 9.75609 57.1504 10.662C57.1504 11.3111 57.296 11.7946 57.5874 12.1165C57.8787 12.4383 58.2904 12.6054 58.8156 12.6054H58.813ZM68.3594 8.84489L73.247 4.25735H75.1154L70.7598 8.24599L73.5009 13.6185H71.7661L69.5823 9.14095L68.171 10.1894L67.4105 13.6117H65.8335L68.898 0.320312H70.4751L69.2789 5.46059L68.3287 8.83131H68.3608V8.84353L68.3594 8.84489ZM78.7332 13.7896C77.5932 13.7896 76.7004 13.4813 76.0482 12.8566C75.396 12.2319 75.0726 11.3763 75.0726 10.2763C75.0709 9.20945 75.3067 8.15603 75.7622 7.19484C76.2246 6.21024 76.8327 5.4443 77.5985 4.90379C78.3322 4.36653 79.2149 4.08022 80.1191 4.08623C81.0694 4.08623 81.7777 4.27228 82.2589 4.65254C82.74 5.0328 82.9739 5.55973 82.9739 6.23469C82.9739 7.25731 82.4607 8.06129 81.4289 8.64797C80.3971 9.23466 78.9283 9.52257 77.0158 9.52257H76.7125L76.675 10.2043C76.675 10.9513 76.8648 11.5298 77.2444 11.9549C77.6239 12.3799 78.2133 12.585 79.0112 12.585C79.4168 12.5831 79.8207 12.5311 80.214 12.4302C80.6257 12.327 81.1389 12.1409 81.7523 11.8639V13.1119C81.2539 13.3342 80.7368 13.5105 80.2074 13.6389C79.7583 13.7407 79.2705 13.7869 78.7319 13.7869L78.7332 13.7896ZM80.0256 5.30985C79.3854 5.30985 78.7907 5.5801 78.2267 6.11382C77.6627 6.64754 77.239 7.39448 76.941 8.34648H77.0546C78.4659 8.34648 79.5498 8.17944 80.3022 7.83857C81.0547 7.49769 81.4289 7.00879 81.4289 6.36506C81.4315 6.22155 81.402 6.0793 81.3428 5.949C81.2835 5.81869 81.196 5.70372 81.0868 5.6127C80.8582 5.41306 80.5107 5.30985 80.0229 5.30985H80.0256ZM89.1137 13.6348H87.5553L89.7271 4.27364H91.2855L89.1137 13.6348ZM90.1588 1.87394C90.1588 1.55208 90.2604 1.2954 90.4568 1.09577C90.6533 0.896132 90.9126 0.792919 91.2293 0.792919C91.7733 0.792919 92.0459 1.05095 92.0459 1.55887C92.0502 1.70536 92.0249 1.85119 91.9716 1.98737C91.9182 2.12354 91.838 2.24717 91.7359 2.35062C91.5274 2.56927 91.2868 2.67248 91.0142 2.67248C90.7669 2.67248 90.5651 2.60186 90.3994 2.46062C90.2417 2.33161 90.1588 2.13061 90.1588 1.87394ZM95.5034 12.6176C95.8455 12.6176 96.2879 12.547 96.8399 12.3922V13.4922C96.5862 13.5826 96.3256 13.6517 96.0607 13.6986C95.8168 13.7487 95.5691 13.7769 95.3203 13.7828C94.5478 13.7828 93.9531 13.6158 93.5414 13.2749C93.1298 12.934 92.9213 12.4315 92.9213 11.7566C92.9213 11.3831 92.9788 10.9526 93.0857 10.4759L94.2631 5.33565H92.6674L92.7997 4.71094L94.5157 4.04141L95.6745 2.09259H96.5859L96.0727 4.24784H98.6174L98.3768 5.33565H95.8375L94.6414 10.4963C94.5278 10.992 94.477 11.3655 94.477 11.6221C94.477 11.944 94.5652 12.1885 94.7496 12.3555C94.9327 12.5361 95.18 12.6176 95.5034 12.6176ZM106.055 13.7896C104.915 13.7896 104.022 13.4813 103.37 12.8566C102.718 12.2319 102.394 11.3763 102.394 10.2763C102.393 9.20945 102.628 8.15603 103.084 7.19484C103.546 6.21024 104.154 5.4443 104.92 4.90379C105.654 4.36653 106.537 4.08022 107.441 4.08623C108.391 4.08623 109.099 4.27228 109.581 4.65254C110.062 5.0328 110.296 5.55973 110.296 6.23469C110.296 7.25731 109.782 8.06129 108.751 8.64797C107.719 9.23466 106.25 9.52257 104.338 9.52257H104.034L103.995 10.2043C103.995 10.9513 104.185 11.5298 104.565 11.9549C104.944 12.3799 105.534 12.585 106.332 12.585C106.737 12.5831 107.141 12.5311 107.534 12.4302C107.946 12.327 108.459 12.1409 109.073 11.8639V13.1119C108.574 13.3342 108.057 13.5105 107.528 13.6389C107.079 13.7407 106.591 13.7869 106.052 13.7869L106.055 13.7896ZM107.346 5.30985C106.707 5.30985 106.111 5.5801 105.548 6.11382C104.986 6.64754 104.561 7.39448 104.263 8.34648H104.376C105.788 8.34648 106.872 8.17944 107.624 7.83857C108.376 7.49769 108.751 7.00879 108.751 6.36506C108.753 6.22155 108.724 6.0793 108.664 5.949C108.605 5.81869 108.518 5.70372 108.408 5.6127C108.18 5.41306 107.827 5.30985 107.346 5.30985ZM116.573 4.08623C117.111 4.07774 117.641 4.22518 118.099 4.5113C118.543 4.79378 118.89 5.19984 119.138 5.72677H119.239L119.859 4.26006H121.037L118.872 13.6212H117.637L117.877 11.8394H117.801C116.693 13.1459 115.528 13.795 114.3 13.795C113.439 13.795 112.761 13.5126 112.274 12.9517C111.786 12.3908 111.539 11.614 111.539 10.6348C111.529 9.50188 111.754 8.37953 112.197 7.34016C112.634 6.32296 113.243 5.53257 114.02 4.95947C114.798 4.38636 115.648 4.08487 116.572 4.08487L116.573 4.08623ZM114.806 12.6054C115.408 12.6054 116.002 12.3419 116.598 11.8136C117.194 11.2853 117.674 10.5982 118.049 9.7548C118.423 8.91144 118.606 8.06265 118.606 7.21386C118.606 6.62853 118.435 6.15864 118.087 5.81097C117.74 5.46331 117.283 5.28948 116.72 5.28948C116.075 5.28948 115.478 5.53393 114.921 6.02283C114.364 6.51173 113.933 7.17447 113.617 8.01104C113.298 8.85716 113.137 9.75609 113.142 10.662C113.142 11.3111 113.288 11.7946 113.579 12.1165C113.871 12.4383 114.281 12.6054 114.806 12.6054ZM128.218 10.9635C128.218 11.8517 127.876 12.5456 127.193 13.0413C126.51 13.537 125.546 13.7883 124.299 13.7883C123.254 13.7883 122.305 13.5886 121.463 13.1961V11.8449C121.907 12.089 122.379 12.2747 122.869 12.3976C123.376 12.5266 123.838 12.5972 124.262 12.5972C125.041 12.5972 125.629 12.456 126.029 12.1722C126.428 11.8883 126.623 11.5216 126.623 11.0789C126.627 10.9274 126.6 10.7768 126.545 10.6362C126.489 10.4957 126.406 10.3681 126.3 10.2614C126.085 10.0427 125.616 9.73443 124.894 9.34738C124.089 8.92909 123.52 8.52439 123.185 8.12512C122.849 7.72585 122.685 7.25596 122.685 6.71001C122.675 6.33969 122.756 5.97273 122.919 5.64159C123.083 5.31045 123.324 5.02532 123.622 4.81144C124.248 4.33476 125.072 4.0903 126.091 4.0903C127.149 4.0903 128.175 4.30216 129.156 4.72045L128.656 5.8911L128.136 5.67924C127.509 5.43479 126.832 5.31256 126.091 5.31256C125.515 5.31256 125.066 5.43479 124.736 5.68603C124.406 5.93727 124.242 6.25234 124.242 6.64483C124.239 6.79668 124.266 6.94754 124.323 7.08814C124.38 7.22873 124.464 7.35609 124.571 7.46238C124.791 7.68782 125.241 7.98388 125.932 8.34377C126.598 8.68464 127.072 8.9807 127.357 9.22515C127.642 9.4696 127.857 9.73307 128.003 10.0169C128.142 10.2872 128.218 10.6104 128.218 10.9635ZM130.558 4.25599H132.122L132.811 8.91415C132.874 9.30663 132.932 9.88517 132.994 10.6511L133.083 12.5035H133.14L133.95 10.7924L134.666 9.4601L137.687 4.25463H139.339L132.861 15.2115C132.285 16.1893 131.715 16.8711 131.151 17.2513C130.587 17.6316 129.91 17.8244 129.119 17.8244C128.67 17.8244 128.239 17.766 127.821 17.6438V16.4922C128.218 16.596 128.627 16.648 129.037 16.647C129.544 16.647 129.981 16.5057 130.341 16.2165C130.702 15.9272 131.056 15.5021 131.399 14.9426L132.108 13.7774L130.557 4.25463L130.558 4.25599Z" fill="#10847E"/>
</g>
<defs>
<clipPath id="clip0_2797_1230">
<rect width="197.799" height="55.6807" fill="white" transform="translate(0.540039 0.320312)"/>
</clipPath>
</defs>
</svg>
