<svg width="199" height="33" viewBox="0 0 199 33" fill="none" xmlns="http://www.w3.org/2000/svg">
<g clip-path="url(#clip0_2797_1425)">
<path d="M89.5475 12.3346C89.2917 11.7023 88.9026 11.1347 88.4076 10.6717C87.9126 10.2086 87.3237 9.86152 86.6825 9.65471C85.6977 9.32051 84.6378 9.28903 83.6356 9.56423C82.6333 9.83943 81.7332 10.4091 81.0482 11.2018C80.6929 11.584 80.3644 11.991 80.0652 12.4199V3.11328H75.0303V3.90507H75.1741L76.5767 4.12434C76.7287 4.16032 76.8653 4.24475 76.9667 4.36529C77.0681 4.48584 77.1289 4.63617 77.1401 4.79432C77.2237 5.36319 77.2718 5.93686 77.284 6.5119V24.4552H79.3339C79.3339 24.4552 79.4658 24.309 79.4658 24.2359C79.5377 23.7365 79.6816 23.3101 79.7535 22.7985C79.7535 22.7985 79.7535 22.6645 79.8254 22.6645C79.8645 22.6586 79.9044 22.6622 79.9419 22.6749C79.9794 22.6876 80.0134 22.709 80.0412 22.7376C80.1855 22.9188 80.346 23.086 80.5207 23.237C81.2246 23.8702 82.0709 24.3176 82.9851 24.54C83.8993 24.7623 84.8533 24.7527 85.763 24.512C86.6726 24.2712 87.5101 23.8068 88.2014 23.1596C88.8928 22.5124 89.4168 21.7023 89.7274 20.8007C90.3455 19.1815 90.5836 17.438 90.4227 15.7089C90.3734 14.5332 90.0749 13.3823 89.5475 12.3346ZM87.7134 17.865C87.7001 18.8635 87.5343 19.8539 87.2219 20.8007C87.0025 21.6231 86.4731 22.3246 85.7483 22.7532C85.0236 23.1818 84.1619 23.3031 83.3498 23.0908C82.2084 22.8979 81.1373 22.4021 80.245 21.6534C80.2012 21.6213 80.1655 21.5792 80.1405 21.5306C80.1155 21.482 80.1021 21.4281 80.1011 21.3733V13.638C80.0977 13.4224 80.1748 13.2135 80.3169 13.0533C81.0819 12.0763 82.1516 11.3931 83.3498 11.1165C83.8495 10.9923 84.3708 10.9881 84.8723 11.1044C85.3738 11.2207 85.8417 11.4543 86.2389 11.7865C86.815 12.3476 87.2083 13.0745 87.3658 13.8695C87.6981 15.1727 87.8156 16.5228 87.7134 17.865Z" fill="#253858"/>
<path d="M104.22 23.3822C103.933 23.3822 103.717 23.4553 103.297 23.4553C102.878 23.4553 102.386 23.0898 102.242 22.4442C102.098 21.7596 102.026 21.0613 102.027 20.3612V14.0756C102.039 13.6277 102.015 13.1795 101.955 12.7356C101.897 12.1862 101.714 11.658 101.421 11.1928C101.128 10.7276 100.732 10.3383 100.264 10.0557C99.5761 9.65412 98.8036 9.42449 98.0108 9.3857C96.045 9.30308 94.0884 9.69988 92.3046 10.5429C92.2241 10.62 92.1731 10.7236 92.1607 10.8353V13.3447H93.875C93.875 13.1254 93.9469 12.9914 93.9469 12.76C93.9478 12.2908 94.0994 11.8348 94.3784 11.4611C94.6575 11.0874 95.0489 10.8163 95.4933 10.6891C95.9274 10.5855 96.368 10.5122 96.812 10.4698C97.3308 10.4158 97.8515 10.5536 98.2786 10.8578C98.7057 11.1621 99.0107 11.6125 99.1376 12.1265C99.4145 13.2981 99.5116 14.5062 99.4253 15.7079H99.0657C98.1546 15.7079 97.2316 15.781 96.3205 15.8419C95.2294 15.9139 94.1682 16.2345 93.2156 16.7798C92.2675 17.3374 91.5691 18.2468 91.2673 19.3168C90.9655 20.3868 91.0838 21.5341 91.5973 22.5173C92.0572 23.3247 92.7585 23.962 93.5993 24.3366C94.4401 24.7112 95.3765 24.8036 96.2725 24.6003C97.3898 24.3633 98.4319 23.8485 99.3054 23.102C99.5812 22.8827 99.8689 22.5904 100.157 22.3833L100.36 22.9558C100.478 23.4221 100.736 23.839 101.1 24.1474C101.464 24.4557 101.914 24.6397 102.386 24.6734C102.813 24.6609 103.238 24.612 103.657 24.5272C104.352 24.3932 104.352 24.3932 104.316 23.6745C104.22 23.5893 104.22 23.5284 104.22 23.3822ZM99.4973 22.0909C98.8285 22.5429 98.0792 22.8575 97.2915 23.0167C96.9325 23.0796 96.5648 23.0699 96.2095 22.9882C95.8542 22.9065 95.5183 22.7543 95.221 22.5405C94.9236 22.3266 94.6708 22.0552 94.4768 21.7419C94.2829 21.4285 94.1517 21.0794 94.0907 20.7144C94.0849 20.5968 94.0849 20.4789 94.0907 20.3612C94.0245 19.6691 94.1817 18.9739 94.5385 18.3806C94.8953 17.7873 95.4324 17.328 96.0687 17.0722C97.1745 16.6338 98.3602 16.4426 99.5452 16.5118C99.5452 16.7311 99.5452 16.8651 99.6891 16.9382V21.7377C99.6906 21.8085 99.6736 21.8785 99.6399 21.9405C99.6062 22.0026 99.557 22.0545 99.4973 22.0909Z" fill="#253858"/>
<path d="M147.64 23.3801C146.729 23.5871 146.238 23.307 146.022 22.369C145.878 21.7586 145.805 21.133 145.806 20.5052V13.842C145.818 13.4831 145.794 13.1239 145.734 12.77C145.685 12.0956 145.442 11.4507 145.035 10.9157C144.627 10.3807 144.074 9.97923 143.444 9.76122C142.948 9.56662 142.428 9.44361 141.898 9.39577C139.923 9.30486 137.954 9.6932 136.156 10.5286C136.075 10.6057 136.024 10.7093 136.012 10.821V13.038C136.012 13.1111 136.084 13.1842 136.084 13.2573H137.846C137.846 13.1842 137.846 13.1111 137.63 12.9649C137.587 12.3934 137.744 11.8249 138.073 11.3592C138.402 10.8936 138.882 10.5606 139.429 10.419C139.802 10.2737 140.199 10.2053 140.599 10.2179C140.998 10.2304 141.391 10.3237 141.754 10.4921C142.153 10.6868 142.489 10.993 142.723 11.375C142.956 11.7569 143.078 12.1986 143.073 12.6482C143.145 13.574 143.145 14.512 143.145 15.4378L143.073 15.5109H142.869C141.874 15.5109 140.963 15.5839 140.04 15.657C138.983 15.7821 137.957 16.0955 137.007 16.5828C136.035 17.1035 135.305 17.9951 134.98 19.0617C134.654 20.1283 134.758 21.2828 135.269 22.2716C135.326 22.3889 135.39 22.5028 135.461 22.6126C135.939 23.3309 136.619 23.886 137.412 24.2055C138.206 24.5249 139.076 24.5939 139.908 24.4033C141.034 24.1958 142.08 23.6726 142.929 22.8928C143.217 22.6857 143.504 22.3934 143.78 22.1863C143.897 22.4364 143.989 22.6975 144.056 22.9659C144.147 23.3424 144.342 23.6846 144.618 23.9522C144.894 24.2198 145.24 24.4017 145.614 24.4764C146.348 24.5874 147.098 24.5121 147.796 24.2571C147.831 24.2548 147.865 24.2402 147.891 24.2158C147.917 24.1915 147.935 24.1588 147.94 24.1231C147.952 23.8329 147.928 23.5423 147.868 23.2583C147.868 23.2583 147.712 23.3801 147.64 23.3801ZM143.205 16.7899V21.7965C143.203 21.8713 143.183 21.9444 143.145 22.0086C143.107 22.0727 143.053 22.1256 142.989 22.1619C142.351 22.6148 141.629 22.9299 140.867 23.0877C140.499 23.1428 140.124 23.1233 139.764 23.0305C139.404 22.9377 139.065 22.7733 138.767 22.5468C138.47 22.3203 138.219 22.0362 138.03 21.7109C137.841 21.3856 137.718 21.0256 137.666 20.6514C137.654 20.4974 137.654 20.3426 137.666 20.1885C137.654 19.4765 137.866 18.7792 138.272 18.1984C138.677 17.6176 139.255 17.1838 139.92 16.9604C140.978 16.5824 142.097 16.4128 143.217 16.461L143.205 16.7899Z" fill="#253858"/>
<path d="M132.896 23.4523C132.736 23.4923 132.569 23.4998 132.406 23.4743C132.242 23.4489 132.085 23.3909 131.944 23.3038C131.802 23.2167 131.679 23.1022 131.582 22.9667C131.484 22.8312 131.413 22.6775 131.374 22.5143V22.3803C131.29 21.9795 131.242 21.5718 131.23 21.1622C131.158 18.799 131.158 16.4358 131.158 14.1457C131.17 13.7383 131.146 13.3306 131.086 12.9275C131.067 12.1364 130.786 11.3749 130.288 10.7667C129.789 10.1586 129.103 9.73955 128.341 9.57765C127.543 9.32234 126.7 9.2475 125.871 9.35838C124.359 9.45632 122.878 9.84486 121.508 10.5034C121.429 10.5831 121.374 10.6848 121.352 10.7958V13.0859C121.397 13.1221 121.427 13.1743 121.436 13.2321H123.126C123.096 12.969 123.096 12.7033 123.126 12.4403C123.186 12.0871 123.325 11.7527 123.533 11.4632C123.741 11.1737 124.012 10.937 124.325 10.7714C124.862 10.5466 125.435 10.4228 126.015 10.406C126.523 10.3766 127.024 10.5251 127.437 10.8267C127.849 11.1283 128.147 11.5646 128.281 12.0627C128.552 13.2352 128.649 14.4423 128.569 15.644C128.425 15.644 128.353 15.644 128.425 15.7171C127.646 15.7902 126.866 15.7902 126.027 15.8633C124.957 15.8902 123.902 16.1302 122.922 16.5698C121.976 16.9337 121.193 17.6379 120.723 18.5488C120.253 19.4598 120.128 20.5143 120.372 21.5126C120.615 22.5109 121.211 23.3837 122.046 23.9657C122.88 24.5477 123.896 24.7984 124.9 24.6705C126.041 24.584 127.127 24.1368 128.005 23.3914C128.424 23.0781 128.824 22.7405 129.204 22.3803C129.249 22.839 129.41 23.2781 129.67 23.6556C129.931 24.0332 130.282 24.3365 130.691 24.5365C131.558 24.8175 132.496 24.7655 133.328 24.3903C133.34 24.0557 133.316 23.7207 133.256 23.3914C133.134 23.3993 133.014 23.4197 132.896 23.4523ZM128.521 16.7525V21.7591C128.521 21.9053 128.449 21.9784 128.317 22.1245C127.672 22.5635 126.953 22.8773 126.195 23.0503C125.465 23.1594 124.722 22.9729 124.125 22.531C123.529 22.089 123.127 21.427 123.006 20.6871V20.2973C122.98 19.612 123.161 18.9349 123.526 18.3576C123.89 17.7803 124.42 17.3306 125.044 17.0692C126.142 16.6305 127.319 16.4353 128.497 16.4967L128.521 16.7525Z" fill="#253858"/>
<path d="M109.819 23.0129C112.708 18.993 115.525 14.9122 118.39 10.9045C118.521 10.72 118.614 10.5105 118.663 10.2887C118.712 10.0668 118.717 9.83711 118.678 9.61328H106.894V12.7805H108.26V11.7816C108.258 11.5152 108.286 11.2495 108.344 10.9898C108.373 10.8761 108.436 10.7742 108.524 10.6979C108.612 10.6216 108.72 10.5747 108.836 10.5634C109.183 10.5634 109.543 10.4903 109.89 10.4903H115.597C115.569 10.5687 115.524 10.6395 115.465 10.6974C112.564 14.8635 109.675 18.9443 106.714 23.0981C106.585 23.2694 106.494 23.4668 106.446 23.6769C106.398 23.887 106.396 24.105 106.438 24.3163H119.049V23.3174H109.639C109.69 23.2847 109.733 23.2401 109.765 23.1871C109.796 23.1342 109.814 23.0745 109.819 23.0129Z" fill="#253858"/>
<path d="M153.816 12.4044V9.72447H148.805V10.4188C149.464 10.565 150.003 10.6381 150.711 10.8452C150.863 10.8811 150.999 10.9656 151.101 11.0861C151.202 11.2067 151.263 11.357 151.274 11.5151C151.358 12.0635 151.406 12.617 151.418 13.1718V21.0167C151.43 21.5172 151.406 22.018 151.346 22.515C151.33 22.7388 151.235 22.9491 151.078 23.1078C150.922 23.2665 150.715 23.363 150.495 23.3799C150.053 23.3943 149.612 23.4391 149.176 23.5139C149.104 23.5139 148.973 23.5869 148.973 23.66V24.3787H156.789V23.526C156.63 23.4752 156.463 23.4546 156.297 23.4651C155.827 23.4532 155.358 23.4044 154.895 23.319C154.66 23.3063 154.44 23.2012 154.281 23.0259C154.122 22.8507 154.037 22.6193 154.043 22.381C153.959 21.8612 153.911 21.3362 153.9 20.8096C153.9 18.6656 153.971 16.5095 153.9 14.3534C153.868 13.9162 153.996 13.4824 154.259 13.1353C154.592 12.6993 155.011 12.3402 155.491 12.0818C155.971 11.8235 156.499 11.6718 157.04 11.637C157.7 11.637 157.748 11.71 157.879 12.3435C157.963 12.7089 157.963 13.2084 158.023 13.5616H159.438V9.54174C156.873 9.11539 155.194 10.3335 153.816 12.4044Z" fill="#253858"/>
<path d="M8.68968 9.76221C7.41843 10.2134 6.3417 11.1008 5.64477 12.2716C5.64477 12.3325 5.57284 12.4056 5.50091 12.4787C5.42899 12.5518 5.50091 12.4056 5.42899 12.4056V9.9693C5.42899 9.76221 5.35706 9.68912 5.15326 9.68912H0.370117C0.370117 9.68912 0.370117 9.76221 0.513971 9.8353C0.503368 10.0051 0.52787 10.1752 0.585898 10.3347C0.585898 10.4687 0.585898 10.5418 0.789692 10.5418C0.993485 10.5418 1.44902 10.6149 1.78468 10.688C2.07127 10.7238 2.33785 10.856 2.54203 11.0635C2.74621 11.271 2.87627 11.5418 2.91154 11.8331C2.91154 12.1985 2.98347 12.6979 2.98347 13.0512V29.618H5.52489V22.7354V22.6624C5.59792 22.7976 5.69555 22.9174 5.8126 23.0156C6.72297 23.8786 7.87519 24.4321 9.10925 24.5992C10.1266 24.7163 11.155 24.5184 12.0598 24.0315C12.9646 23.5446 13.7037 22.7914 14.1801 21.8706C14.8873 20.5185 15.2964 19.0263 15.3789 17.4974C15.5589 15.9316 15.3867 14.3447 14.8754 12.8563C14.6968 12.2218 14.3894 11.6323 13.973 11.1258C13.5566 10.6193 13.0404 10.2071 12.4577 9.9156C11.8749 9.62413 11.2386 9.45989 10.5897 9.43348C9.94069 9.40706 9.29347 9.51904 8.68968 9.76221ZM12.4179 20.5062C12.2418 21.2356 11.8777 21.9042 11.363 22.4431C11.0437 22.7407 10.6617 22.9602 10.2461 23.0848C9.83059 23.2093 9.39251 23.2357 8.9654 23.1618C7.75376 22.9864 6.60869 22.4907 5.64477 21.7244C5.58147 21.6931 5.52786 21.6448 5.4898 21.5846C5.45174 21.5244 5.4307 21.4548 5.42899 21.3833V13.5506C5.42544 13.495 5.43699 13.4395 5.46235 13.3901C5.48771 13.3407 5.52593 13.2993 5.57284 13.2705C6.2563 12.185 7.31113 11.3952 8.53384 11.0534C9.09435 10.8719 9.69851 10.8859 10.2502 11.0934C10.802 11.3009 11.2696 11.6899 11.5787 12.1985C12.1298 13.0205 12.4943 13.9567 12.6457 14.9393C12.994 16.7879 12.916 18.6934 12.4179 20.5062Z" fill="#0065FF"/>
<path d="M26.8749 10.3359C25.5707 9.58078 24.0601 9.27721 22.5712 9.47107C21.6143 9.55012 20.689 9.8571 19.8706 10.3671C19.0521 10.8772 18.3633 11.5759 17.86 12.4068C17.25 13.3941 16.8412 14.4959 16.6579 15.6467C16.4746 16.7976 16.5206 17.9741 16.7931 19.1066C17.076 20.6897 17.9072 22.1177 19.1364 23.1321C20.3655 24.1465 21.9114 24.6803 23.4943 24.637C23.7115 24.5888 23.9364 24.5888 24.1536 24.637C24.2256 24.637 24.3574 24.637 24.4413 24.637C25.419 24.5425 26.3589 24.2054 27.1784 23.6553C27.9978 23.1051 28.6716 22.3588 29.1406 21.482C29.71 20.4683 30.0772 19.3506 30.2212 18.1926C30.3652 17.0346 30.2832 15.8592 29.9797 14.7334C29.7896 13.8221 29.4154 12.9608 28.881 12.2039C28.3466 11.447 27.6635 10.811 26.8749 10.3359ZM26.6591 21.5794C26.3593 22.3186 25.8449 22.9475 25.1846 23.3823C24.5353 23.8223 23.7467 23.9977 22.9758 23.8736C22.2049 23.7494 21.5084 23.3348 21.0248 22.7123C20.2498 21.7669 19.7404 20.6263 19.5503 19.4111C19.079 17.2563 19.2543 15.0074 20.0538 12.955C20.3496 12.1202 20.8585 11.3803 21.5283 10.811C22.1739 10.2719 23.0037 10.0153 23.8354 10.0975C24.667 10.1797 25.4326 10.5941 25.9638 11.2496L26.1196 11.4566C26.8969 12.4721 27.3824 13.6863 27.5222 14.9649C27.6661 15.6836 27.6661 16.3049 27.738 16.6825C27.7731 18.3794 27.4029 20.0597 26.6591 21.5794Z" fill="#0065FF"/>
<path d="M35.1942 3.37829C35.1942 3.15903 35.1942 3.08594 34.9065 3.08594H30.1953V3.82901C30.7277 3.93869 31.2738 3.96334 31.8137 3.90209C32.0426 3.97264 32.2483 4.10513 32.4088 4.28538C32.5693 4.46563 32.6785 4.68685 32.7247 4.92533C32.8086 5.25193 32.8568 5.5869 32.8686 5.92421C32.8686 8.60413 32.8686 11.1622 32.7967 13.8056C32.7967 15.243 32.7247 16.6073 32.7247 18.0447C32.7247 19.945 32.7247 21.955 32.7247 23.8918V24.1842H35.0264C35.386 24.1842 35.386 24.1842 35.386 23.8187C35.386 20.3105 35.3141 16.7291 35.3141 13.1356C35.1942 9.91972 35.1942 6.67946 35.1942 3.37829Z" fill="#0065FF"/>
<path d="M71.7932 9.39702C71.5654 9.39702 71.5055 9.39702 71.4335 9.61629C71.1458 10.5421 70.8701 11.48 70.5105 12.4058C69.3836 15.2197 68.1848 17.8997 66.9141 20.6527C66.9141 20.6527 66.9141 20.7258 66.7703 20.7988C66.7354 20.6974 66.6912 20.5996 66.6384 20.5065C65.5116 17.7169 64.3128 14.8543 63.1859 12.0526C63.0031 11.5 62.9258 10.917 62.9581 10.335V9.39702H58.9902C58.3308 9.39702 58.4267 9.32393 58.4267 9.96955V10.0426C58.4267 10.0426 58.4987 10.1888 58.5586 10.1888C58.9186 10.238 59.2592 10.3835 59.5457 10.6103C59.8321 10.8372 60.0541 11.1374 60.189 11.48C60.3928 11.9795 60.5366 12.4058 60.7524 12.9175C62.2988 16.5719 63.7853 20.2263 65.2598 23.8077C65.2953 23.886 65.3137 23.9712 65.3137 24.0574C65.3137 24.1436 65.2953 24.2288 65.2598 24.3071C65.0785 24.6248 64.9375 24.9645 64.8402 25.3182C64.5525 26.0369 64.2768 26.7434 63.9891 27.389C63.7678 27.8434 63.3935 28.2021 62.9342 28.4001C62.2112 28.7533 61.4074 28.9006 60.6085 28.8264C60.117 28.8264 59.6255 28.7533 59.134 28.7533C58.6425 28.7533 58.7025 28.8264 58.8463 29.2528C59.0621 29.2528 59.206 29.3259 59.3378 29.3259C60.117 29.3259 60.8843 29.3989 61.5915 29.3989C61.9686 29.4114 62.346 29.3869 62.7184 29.3259C63.1542 29.2565 63.5628 29.0662 63.8991 28.7761C64.2354 28.4859 64.4864 28.1071 64.6245 27.6814C65.6794 25.4522 66.6744 23.089 67.7293 20.7988C69.048 17.6439 70.5465 14.4158 71.961 11.2608C72.2487 10.7613 72.5244 10.2619 72.8002 9.68938C72.4165 9.68938 72.0689 9.76247 71.7932 9.39702Z" fill="#0065FF"/>
<path d="M56.7118 10.042C55.1342 9.5666 53.4875 9.37289 51.8447 9.46944C50.8871 9.55229 49.9617 9.86075 49.1418 10.3703C48.322 10.8799 47.6302 11.5766 47.1215 12.4052C46.3906 13.5261 45.9435 14.8133 45.8201 16.1521C45.6968 17.491 45.9008 18.8401 46.4142 20.0795C46.7447 21.0835 47.3084 21.9918 48.0575 22.7276C48.8066 23.4634 49.7191 24.0049 50.7179 24.3064C52.7305 24.8503 54.8639 24.7003 56.7837 23.8801C56.8556 23.8801 56.9156 23.7339 56.9156 23.6608V22.735C56.7875 22.7353 56.664 22.783 56.5679 22.869C55.3425 23.3781 54.0016 23.53 52.6959 23.3076C51.8325 23.1659 51.0275 22.7747 50.377 22.1807C49.7265 21.5867 49.2581 20.8149 49.0276 19.9577C48.5701 18.5243 48.395 17.0135 48.5121 15.5114C48.5981 14.479 48.8703 13.4714 49.3153 12.5392C49.5744 11.8959 50.0086 11.3411 50.567 10.9398C51.1255 10.5385 51.7849 10.3073 52.4681 10.2734C53.0562 10.1511 53.6681 10.271 54.1693 10.6067C54.6706 10.9425 55.0202 11.4666 55.1414 12.0641C55.2574 12.4364 55.3338 12.8203 55.3691 13.2091C55.3691 13.4284 55.4411 13.5015 55.6569 13.5015H56.7118C56.7608 13.505 56.8092 13.4892 56.8472 13.4575C56.8851 13.4258 56.9096 13.3805 56.9156 13.331V10.2734C56.9036 10.1881 56.8437 10.1151 56.7118 10.042Z" fill="#0065FF"/>
<path d="M38.7314 9.76172V10.4195H39.4387C39.6304 10.4051 39.8229 10.4342 40.0022 10.5048C40.2903 10.5364 40.5592 10.6672 40.7642 10.8755C40.9691 11.0838 41.0979 11.357 41.129 11.6498C41.129 12.0031 41.2009 12.3564 41.2009 12.6487C41.2009 14.2201 41.129 15.8037 41.129 17.3386C41.129 19.4216 41.0571 21.5046 41.0571 23.5755V24.2454H43.8143C43.7424 19.446 43.7424 14.5734 43.6704 9.7739L38.7314 9.76172Z" fill="#0065FF"/>
<path d="M43.6576 4.44922H41.1172V6.95859H43.6576V4.44922Z" fill="#0065FF"/>
<path d="M182.514 32.4195C191.16 32.4195 198.17 25.2968 198.17 16.5105C198.17 7.72425 191.16 0.601562 182.514 0.601562C173.867 0.601562 166.857 7.72425 166.857 16.5105C166.857 25.2968 173.867 32.4195 182.514 32.4195Z" fill="#0065FF"/>
<path d="M181.806 19.4709C181.615 19.8855 181.351 20.2611 181.027 20.5794C180.737 20.8671 180.395 21.0947 180.02 21.2494C179.513 21.5158 178.923 21.5683 178.378 21.3956C178.149 21.3181 177.941 21.1891 177.769 21.0182C177.596 20.8473 177.464 20.639 177.383 20.4089C177.268 20.1321 177.223 19.8308 177.251 19.5318C177.275 19.2522 177.37 18.9837 177.526 18.7522C177.685 18.5197 177.875 18.3107 178.09 18.1309C178.354 17.9482 178.629 17.7777 178.905 17.6193C179.473 17.3151 180.011 16.9562 180.511 16.5474L180.404 16.2916C180.357 16.1318 180.279 15.9834 180.174 15.8556C180.069 15.7278 179.939 15.6233 179.792 15.5485C179.389 15.4485 178.965 15.4959 178.593 15.6825C178.227 15.8011 177.908 16.0359 177.682 16.3525C177.514 16.6824 177.467 17.0626 177.55 17.4244L176.531 17.6924C176.444 17.2912 176.444 16.8755 176.531 16.4743C176.653 16.1039 176.873 15.7749 177.167 15.5241C177.523 15.2076 177.928 14.9525 178.366 14.7689C178.772 14.5869 179.206 14.4757 179.648 14.44C179.94 14.4249 180.232 14.4791 180.499 14.5983C180.733 14.7389 180.934 14.9302 181.087 15.1587C181.247 15.4431 181.383 15.7405 181.494 16.0479L182.034 17.3879C182.257 17.9809 182.517 18.5586 182.813 19.1176C182.952 19.3471 183.131 19.5492 183.341 19.7145L182.322 20.1409C182.11 19.9526 181.935 19.7253 181.806 19.4709ZM180.823 17.2782C180.383 17.6799 179.9 18.0312 179.385 18.3259C179.104 18.4759 178.842 18.6599 178.605 18.874C178.476 19.0076 178.388 19.1772 178.354 19.3613C178.293 19.5389 178.293 19.7319 178.354 19.9094C178.402 20.0361 178.477 20.1501 178.575 20.243C178.673 20.3358 178.789 20.405 178.917 20.4454C179.241 20.5416 179.589 20.5066 179.888 20.348C180.246 20.2136 180.562 19.9819 180.799 19.678C181.019 19.4055 181.145 19.0676 181.159 18.7157C181.148 18.3524 181.062 17.9956 180.907 17.6681L180.823 17.2782Z" fill="white"/>
<path d="M187.704 15.6325L188.759 15.3401C188.853 15.9492 188.738 16.5723 188.436 17.1064C188.102 17.6681 187.591 18.0977 186.985 18.3246C186.622 18.4933 186.227 18.5806 185.828 18.5806C185.429 18.5806 185.034 18.4933 184.671 18.3246C183.89 17.9346 183.291 17.2475 183.005 16.4121C182.611 15.6008 182.546 14.6645 182.825 13.8052C182.961 13.4316 183.175 13.0923 183.453 12.8106C183.73 12.5289 184.064 12.3114 184.432 12.1729C184.779 12.0101 185.158 11.9258 185.54 11.9258C185.923 11.9258 186.302 12.0101 186.649 12.1729C187.425 12.5817 188.014 13.2805 188.292 14.122L188.4 14.39L184.096 16.1806C184.336 16.7215 184.762 17.1546 185.295 17.3988C185.518 17.4953 185.759 17.545 186.002 17.545C186.245 17.545 186.486 17.4953 186.709 17.3988C187.038 17.2646 187.319 17.0306 187.512 16.7288C187.666 16.3856 187.732 16.0085 187.704 15.6325ZM183.844 15.3767L187.057 14.0367C186.888 13.6388 186.604 13.303 186.242 13.0744C186.024 12.9492 185.781 12.8775 185.531 12.8648C185.281 12.8521 185.032 12.8988 184.803 13.0013C184.59 13.0853 184.396 13.2115 184.231 13.3726C184.067 13.5336 183.935 13.7262 183.844 13.9392C183.676 14.4032 183.676 14.9127 183.844 15.3767Z" fill="white"/>
</g>
<defs>
<clipPath id="clip0_2797_1425">
<rect width="197.799" height="31.8179" fill="white" transform="translate(0.369141 0.597656)"/>
</clipPath>
</defs>
</svg>
